<svg viewBox="0 0 20 20" xmlns="http://www.w3.org/2000/svg"><path d="m16.02.38-.24.015-.239.052-.225.09-.209.125-.185.158L.426 15.316l-.153.178-.123.201-.09.217-.056.229-.018.236.02.234.055.229.09.219.122.199.153.181 2.035 2.036.113.082.13.05.138.012.138-.027.124-.063.101-.097.072-.12.035-.132.018-.153.031-.127.065-.113.092-.096.113-.066.123-.035.13-.002.497.06.13-.002.128-.037.111-.066.092-.094.062-.113.032-.127.06-.496.031-.127.063-.115.092-.094.111-.066.125-.036h.133l.496.057.13-.002.126-.035.111-.066.092-.094.062-.115.034-.125.058-.497.031-.127.065-.113.092-.094.109-.068.127-.033.13-.002.497.057.13-.002.126-.034.111-.068.092-.094.064-.113.032-.127.058-.496.031-.129.065-.111.092-.094.111-.066.127-.038.129-.001.496.058h.133l.123-.035.113-.066.09-.094.064-.115.034-.127.058-.496.033-.127.061-.114.092-.093.113-.067.125-.037h.13l.497.057h.13l.126-.037.113-.067.09-.094.063-.113.035-.127.056-.496.032-.127.064-.115.092-.092.111-.068.127-.033.129-.002.498.056h.129l.125-.037.113-.066.09-.094.065-.113.033-.127.058-.496.032-.127.064-.114.09-.093.113-.067.125-.035.129-.004.498.059h.131l.125-.035.113-.067.09-.094.065-.115.03-.127.11-.922.262.086.267.069.276.03.277-.003.272-.045.263-.084.252-.117.23-.15.21-.182 2.23-2.229.156-.183.124-.207.091-.223.053-.234.016-.24-.026-.243-.06-.23-.1-.22-.13-.204-.163-.176-.19-.148-.982-.658-.21-.159-.186-.19-.162-.208-.131-.229-.098-.246-.068-.256-.033-.261.004-.266-.002-.242-.041-.238-.079-.23-.113-.216-.148-.193-.178-.168-.201-.135-.22-.101-.233-.065-.244-.025zm-.026 1 .133.024.125.055.102.088.076.111.045.125.005.135-.003.352.035.353.074.344.117.334.156.314.188.297.226.274.254.244.282.213.984.654.094.084.072.101.043.12.012.127-.02.125-.049.115-.078.097-2.228 2.23-.143.118-.16.09-.176.059-.181.025-.184-.008-.18-.04-4.088-1.364-.144-.06-.13-.08-.116-.102-.457-.455 4.949-4.952.107-.082.125-.049.133-.015zm-1.107 2.718-.196.02-.187.056-.174.092-.15.125-.819.816-.127.158-.093.18-.055.197-.016.201.026.202.066.19.106.177.136.15.164.117.184.084 1.592.532.18.043.183.007.184-.025.173-.06.163-.09.14-.116.5-.5.123-.152.094-.172.055-.19.021-.193-.021-.195-.055-.19-.094-.171-.125-.153-.152-.125-1.272-.845-.171-.094-.19-.057-.193-.02zm0 1 1.273.85-.5.497-1.59-.53.817-.817zM9.973 7.186l.457.457.172.152.189.133.203.111.215.086 2.855.951-.072.633-.236-.008-.233.028-.228.064-.213.098-.195.13-.174.16-.145.184-.115.207-.082.221-.045.232-.234-.01-.235.028-.226.064-.215.098-.195.129-.172.162-.147.184-.113.207-.082.22-.047.23-.234-.009-.235.03-.226.062-.213.1-.195.13-.172.159-.147.187-.115.203-.08.223-.047.23-.234-.01-.235.03-.226.062-.213.1-.195.13-.174.161-.147.186-.115.205-.08.22-.045.23-.236-.007-.233.027-.226.065-.215.097-.195.131-.172.16-.147.186-.115.205-.08.22-.047.231-.236-.01-.233.028-.228.066-.211.098-.196.13-.173.16-.145.186-.115.206-.082.22-.047.23-.227-.007-.224.025-.223.059-.207.09-.191.123-.172.148-.147.174-1.476-1.475-.08-.105-.051-.121-.016-.129.018-.129.05-.121.079-.104 8.84-8.837z" fill="#ffffff" fill-opacity="1" stroke="none" stroke-width="0" class="fill-222222"></path></svg>